<svg xmlns="http://www.w3.org/2000/svg" width="256" height="256" viewBox="0 0 256 256"><path fill="#fff" d="M127.8.4l110.6 63.9v127.8L127.8 256 17.1 192.1V64.3L127.8.4z"/><path fill="#ff9500" d="M65.2 180l-4.8-6.9a2.3 2.3 0 0 1 .2-2.5L78 150h-8.6a2 2 0 0 1-2.1-2.1v-15.1a2.1 2.1 0 0 1 2.1-2.1h12.2a57.1 57.1 0 0 1-2.3-15.9A49.8 49.8 0 0 1 129 65.2c27.1 0 49.6 22.5 49.6 49.6a50.7 50.7 0 0 1-2.4 15.9h12.2a2 2 0 0 1 2.1 2.1v15.1a1.9 1.9 0 0 1-2.1 2.1h-10.7l17.2 20.6a2.1 2.1 0 0 1 0 2.5l-4.8 6.9a2.2 2.2 0 0 1-2.7.7l-10.1-5.3H78l-10.1 5.3a2.2 2.2 0 0 1-2.7-.7zm31.9-30H83.3l-18.5 21.9 2.9 4.2 35.5-18.7zm-25.6-15.1v10.9h114.8v-10.9zm14.5-4.2h85.8a50 50 0 0 0 2.6-15.9 45.5 45.5 0 0 0-90.9 0c0 5.4.4 11.1 2.5 15.9zm20.1 30l-19.9 10.5h28.5zm-3.5-10.7l17.6 21.2h15.1l17.6-21.2zm46.8 10.7l-8.6 10.5h28.5zm22.9-10.7h-13.9l-6.3 7.4 35.7 18.7 2.9-4z"/></svg>