<svg xmlns="http://www.w3.org/2000/svg" width="256" height="256" viewBox="0 0 256 256"><path fill="#fff" d="M127.8.4l110.6 63.9v127.8L127.8 256 17.1 192.1V64.3L127.8.4z"/><path fill="#ff9500" d="M67.1 175.4a1.9 1.9 0 0 1-2.1-2.1v-25.4H37.3a2.2 2.2 0 0 1-2.1-2.1 2.3 2.3 0 0 1 2.1-2.1H53v-13.6a2 2 0 0 1 2.1-2.1h8.2a66.6 66.6 0 0 1 64.2-51 .7.7 0 0 1 .9 0 66.2 66.2 0 0 1 63.8 51h8.2a2 2 0 0 1 2.1 2.1v13.6h15.7a2.3 2.3 0 0 1 2.1 2.1 2.2 2.2 0 0 1-2.1 2.1h-27.7v25.4a1.9 1.9 0 0 1-2.1 2.1zm-9.9-43.2v11.5h141.1v-11.5zm66.4-50.8c-26.9 1.7-49.4 21.2-55.9 46.6h22.5zm-54.4 66.5v23.3h56.5v-23.3zm56.5-62.3L95.4 128h30.3zm4.2-4.4V128h57.9a62.3 62.3 0 0 0-57.9-46.8zm0 66.7v23.3h9.4v-23.3zm13.6 0v23.3h42.8v-23.3z"/></svg>