<svg xmlns="http://www.w3.org/2000/svg"><symbol id="bubble" viewBox="0 0 256 256"><path fill="#fff" d="M127.8.4l110.6 63.9v127.8L127.8 256 17.1 192.1V64.3L127.8.4z"/><path fill="#ff9500" d="M65.2 180l-4.8-6.9a2.3 2.3 0 0 1 .2-2.5L78 150h-8.6a2 2 0 0 1-2.1-2.1v-15.1a2.1 2.1 0 0 1 2.1-2.1h12.2a57.1 57.1 0 0 1-2.3-15.9A49.8 49.8 0 0 1 129 65.2c27.1 0 49.6 22.5 49.6 49.6a50.7 50.7 0 0 1-2.4 15.9h12.2a2 2 0 0 1 2.1 2.1v15.1a1.9 1.9 0 0 1-2.1 2.1h-10.7l17.2 20.6a2.1 2.1 0 0 1 0 2.5l-4.8 6.9a2.2 2.2 0 0 1-2.7.7l-10.1-5.3H78l-10.1 5.3a2.2 2.2 0 0 1-2.7-.7zm31.9-30H83.3l-18.5 21.9 2.9 4.2 35.5-18.7zm-25.6-15.1v10.9h114.8v-10.9zm14.5-4.2h85.8a50 50 0 0 0 2.6-15.9 45.5 45.5 0 0 0-90.9 0c0 5.4.4 11.1 2.5 15.9zm20.1 30l-19.9 10.5h28.5zm-3.5-10.7l17.6 21.2h15.1l17.6-21.2zm46.8 10.7l-8.6 10.5h28.5zm22.9-10.7h-13.9l-6.3 7.4 35.7 18.7 2.9-4z"/></symbol><symbol id="domes" viewBox="0 0 256 256"><path fill="#fff" d="M127.8.4l110.6 63.9v127.8L127.8 256 17.1 192.1V64.3L127.8.4z"/><path fill="#ff9500" d="M67.1 175.4a1.9 1.9 0 0 1-2.1-2.1v-25.4H37.3a2.2 2.2 0 0 1-2.1-2.1 2.3 2.3 0 0 1 2.1-2.1H53v-13.6a2 2 0 0 1 2.1-2.1h8.2a66.6 66.6 0 0 1 64.2-51 .7.7 0 0 1 .9 0 66.2 66.2 0 0 1 63.8 51h8.2a2 2 0 0 1 2.1 2.1v13.6h15.7a2.3 2.3 0 0 1 2.1 2.1 2.2 2.2 0 0 1-2.1 2.1h-27.7v25.4a1.9 1.9 0 0 1-2.1 2.1zm-9.9-43.2v11.5h141.1v-11.5zm66.4-50.8c-26.9 1.7-49.4 21.2-55.9 46.6h22.5zm-54.4 66.5v23.3h56.5v-23.3zm56.5-62.3L95.4 128h30.3zm4.2-4.4V128h57.9a62.3 62.3 0 0 0-57.9-46.8zm0 66.7v23.3h9.4v-23.3zm13.6 0v23.3h42.8v-23.3z"/></symbol><symbol id="stilts" viewBox="0 0 256 256"><path fill="#fff" d="M127.8.4l110.6 63.9v127.8L127.8 256 17.1 192.1V64.3L127.8.4z"/><path fill="#ff9500" d="M63.5 175.4a2.3 2.3 0 0 1-2.1-2.1 2.3 2.3 0 0 1 2.1-2.1H74V158H63.5a2 2 0 0 1-2.1-2.1v-41.3a2 2 0 0 1 2.1-2.1h13.9c1-29.8 23.3-46.2 50.4-46.2s49.3 16.4 50.3 46.2H192a2 2 0 0 1 2.1 2.1v41.3a2 2 0 0 1-2.1 2.1h-10.5v13.2H192a2.3 2.3 0 0 1 2.1 2.1 2.3 2.3 0 0 1-2.1 2.1zm2.1-58.7v37.1h124.3v-37.1zM78.2 158v13.2h13.5V158zm3.4-45.5h92.3c-1-27.1-21.6-42-46.1-42s-45.2 14.9-46.2 42zM95.9 158v13.2h20.9V158zm25.1 0v13.2h13.5V158zm56.9-14.3h-51.2a2.3 2.3 0 0 1-2.1-2.1 2.3 2.3 0 0 1 2.1-2.1h51.2a2.3 2.3 0 0 1 2.1 2.1 2.2 2.2 0 0 1-2.1 2.1zM138.7 158v13.2h21V158zm25.2 0v13.2h13.4V158z"/></symbol></svg>