<svg xmlns="http://www.w3.org/2000/svg" width="256" height="256" viewBox="0 0 256 256"><path fill="#fff" d="M127.8.4l110.6 63.9v127.8L127.8 256 17.1 192.1V64.3L127.8.4z"/><path fill="#ff9500" d="M63.5 175.4a2.3 2.3 0 0 1-2.1-2.1 2.3 2.3 0 0 1 2.1-2.1H74V158H63.5a2 2 0 0 1-2.1-2.1v-41.3a2 2 0 0 1 2.1-2.1h13.9c1-29.8 23.3-46.2 50.4-46.2s49.3 16.4 50.3 46.2H192a2 2 0 0 1 2.1 2.1v41.3a2 2 0 0 1-2.1 2.1h-10.5v13.2H192a2.3 2.3 0 0 1 2.1 2.1 2.3 2.3 0 0 1-2.1 2.1zm2.1-58.7v37.1h124.3v-37.1zM78.2 158v13.2h13.5V158zm3.4-45.5h92.3c-1-27.1-21.6-42-46.1-42s-45.2 14.9-46.2 42zM95.9 158v13.2h20.9V158zm25.1 0v13.2h13.5V158zm56.9-14.3h-51.2a2.3 2.3 0 0 1-2.1-2.1 2.3 2.3 0 0 1 2.1-2.1h51.2a2.3 2.3 0 0 1 2.1 2.1 2.2 2.2 0 0 1-2.1 2.1zM138.7 158v13.2h21V158zm25.2 0v13.2h13.4V158z"/></svg>